<svg width="62" height="62" viewBox="0 0 62 62" fill="none" xmlns="http://www.w3.org/2000/svg">
<path d="M58.991 19.258C56.8167 12.4656 50.5231 7.67422 43.0812 8.02701C38.5756 8.24069 34.558 10.3585 31.7842 13.6093C31.778 13.6165 31.7664 13.6139 31.7637 13.6048C31.378 12.2556 31.178 10.8517 31.178 9.43134V1.01208C31.178 1.00537 31.1726 1 31.1662 1H22.814C22.8074 1 22.8021 1.00549 22.8021 1.01208V9.43134C22.8021 13.7903 23.9902 18.0543 26.2377 21.7623C27.5864 23.9872 28.0767 26.6468 27.5992 29.2168C26.4527 35.3857 23.0242 40.0752 18.806 40.9919C17.6355 41.2462 16.5532 41.8156 15.6535 42.6204C12.9762 45.0155 12.4278 49.0743 14.4171 52.0869C17.1915 56.2887 22.5492 59.1352 28.7035 59.1352C44.0961 59.1352 56.877 46.6092 59.3662 30.1604" stroke="#333333" stroke-width="2" stroke-miterlimit="10" stroke-linecap="round" stroke-linejoin="round"/>
<path d="M13.2213 49.6972H12.1478C10.6195 49.6972 9.37603 50.9652 9.37603 52.5239V60.9999H1V52.5239C1 46.2551 6.00085 41.155 12.1478 41.155H18.0859" stroke="#333333" stroke-width="2" stroke-miterlimit="10" stroke-linecap="round" stroke-linejoin="round"/>
<path d="M51.541 16.041C49.4278 14.0909 46.4086 12.9033 43.3033 12.9033C40.3166 12.9033 37.6598 13.8704 35.5939 16.041C33.4659 18.2771 32.3106 21.3304 32.3411 24.6385L32.3224 27.2276C32.2955 30.9552 31.378 34.6341 29.5611 37.8686C29.1349 38.6274 28.6705 39.3465 28.1703 40.0204C25.8961 43.0839 23.0027 45.0708 19.803 45.7661C19.4506 45.8427 19.1071 46.0238 18.8095 46.2899C17.9312 47.0756 17.7496 48.3957 18.3866 49.3607C20.3796 52.379 24.3327 54.2541 28.7029 54.2541C35.5951 54.2541 42.1135 51.2356 47.0575 45.7546C52.1112 40.1519 54.9377 32.6526 55.0167 24.6384C55.0492 21.3304 53.8832 18.2024 51.541 16.041Z" stroke="#333333" stroke-width="2" stroke-miterlimit="10" stroke-linecap="round" stroke-linejoin="round"/>
<path d="M54.752 28.1528C52.6926 26.1078 49.4092 26.1078 47.3497 28.1528C45.2903 26.1078 42.0069 26.1078 39.9475 28.1528C37.8709 26.0907 34.549 26.1067 32.4932 28.2033" stroke="#333333" stroke-width="2" stroke-miterlimit="10" stroke-linecap="round" stroke-linejoin="round"/>
<path d="M43.6226 38.4596C44.9443 38.4596 46.0158 37.3669 46.0158 36.019C46.0158 34.6711 44.9443 33.5784 43.6226 33.5784C42.3009 33.5784 41.2295 34.6711 41.2295 36.019C41.2295 37.3669 42.3009 38.4596 43.6226 38.4596Z" stroke="#333333" stroke-width="2" stroke-miterlimit="10" stroke-linecap="round" stroke-linejoin="round"/>
<path d="M35.2999 46.0363C36.6216 46.0363 37.693 44.9436 37.693 43.5956C37.693 42.2477 36.6216 41.155 35.2999 41.155C33.9782 41.155 32.9067 42.2477 32.9067 43.5956C32.9067 44.9436 33.9782 46.0363 35.2999 46.0363Z" stroke="#333333" stroke-width="2" stroke-miterlimit="10" stroke-linecap="round" stroke-linejoin="round"/>
<ellipse cx="42.8245" cy="43.5956" rx="1.19658" ry="1.22031" stroke="#333333" stroke-width="2" stroke-miterlimit="10" stroke-linecap="round" stroke-linejoin="round"/>
<ellipse cx="36.3108" cy="35.6798" rx="1.19658" ry="1.22031" stroke="#333333" stroke-width="2" stroke-miterlimit="10" stroke-linecap="round" stroke-linejoin="round"/>
<ellipse cx="59.803" cy="24.6873" rx="1.19658" ry="1.22031" stroke="#333333" stroke-width="2" stroke-miterlimit="10" stroke-linecap="round" stroke-linejoin="round"/>
</svg>
